PathFileType	4	(X/Y/Z)	/Users/visionmauri/Downloads/Videos/OAW02-top_Sports2D/OAW02-top_Sports2D_px_person00.trc
DataRate	CameraRate	NumFrames	NumMarkers	Units	OrigDataRate	OrigDataStartFrame	OrigNumFrames
30.0	30.0	6	22	m	30.0	539	2158
Frame#	Time	Hip			RHip			RKnee			RAnkle			RBigToe			RSmallToe			RHeel			LHip			LKnee			LAnkle			LBigToe			LSmallToe			LHeel			Neck			Head			Nose			RShoulder			RElbow			RWrist			LShoulder			LElbow			LWrist			
		X1	Y1	Z1	X2	Y2	Z2	X3	Y3	Z3	X4	Y4	Z4	X5	Y5	Z5	X6	Y6	Z6	X7	Y7	Z7	X8	Y8	Z8	X9	Y9	Z9	X10	Y10	Z10	X11	Y11	Z11	X12	Y12	Z12	X13	Y13	Z13	X14	Y14	Z14	X15	Y15	Z15	X16	Y16	Z16	X17	Y17	Z17	X18	Y18	Z18	X19	Y19	Z19	X20	Y20	Z20	X21	Y21	Z21	X22	Y22	Z22
539	17.97499613660949	618.0109610365608	1379.018542309107	0.0	672.536441303718	1395.597993612593	0.0	662.3261096064482	1532.9142106816016	0.0	656.4384553549703	1691.5209117139505	0.0	634.5720569142926	1743.4649100185857	0.0	672.361566860731	1744.7004894095498	0.0	651.2408430921721	1731.7859508377844	0.0	569.4454466292743	1398.2246168383374	0.0	574.7180193865897	1576.3161271343063	0.0	584.3305809584803	1767.4421608144617	0.0	599.4157373603132	1773.1462086299443	0.0	562.6921194484843	1791.0595914288695	0.0	593.0014937441233	1808.4415336390646	0.0	614.8872964793101	1065.9398098856027	0.0	618.2322375142536	962.5708384595015	0.0	623.3297772369564	1028.1379234101464	0.0	710.7127325683263	1120.8270891021618	0.0	746.972165295881	1266.1452689615119	0.0	762.3477257464921	1377.9178870835806	0.0	512.1901404511235	1115.9118859675423	0.0	467.5702372793303	1256.7584775452424	0.0	443.22037456246846	1375.0300046051734	0.0
540	18.00834492350487	617.01988194888	1375.6137796853789	0.0	670.4035279997784	1393.0466598096973	0.0	661.8139676400798	1518.8491511285388	0.0	652.5620781831058	1665.925471132888	0.0	636.7912551199483	1695.363891940488	0.0	672.0563998316389	1695.9205803532263	0.0	645.5651374393517	1703.7641327063711	0.0	569.6138858572327	1397.2789934588884	0.0	576.294873071777	1577.9071346833098	0.0	585.5353633798421	1765.839628024963	0.0	599.8064026176888	1773.5487940474486	0.0	564.58810384106	1792.3766055328383	0.0	594.3678548563092	1806.355851655785	0.0	614.0085470656497	1061.0338847728804	0.0	617.5487282254138	962.130853204949	0.0	624.261475729625	1024.0091639433647	0.0	708.4586970369294	1117.2371138331678	0.0	745.5431059306585	1257.1832239851924	0.0	766.2874682931935	1369.0304155365086	0.0	512.9438324168077	1113.3943350710124	0.0	466.07013700158404	1250.6370155960303	0.0	442.82414250917554	1363.8552004326123	0.0
541	18.04169371040025	616.4412183300393	1370.4450043235834	0.0	669.7497425822141	1385.917625098852	0.0	661.1787514446927	1503.3986942932518	0.0	649.2265076239999	1636.8806382994014	0.0	637.2990168766944	1650.9373859561338	0.0	669.8151012875132	1652.3947961266263	0.0	641.3978788495774	1673.6460302195526	0.0	569.1406419125575	1392.3313001927445	0.0	578.4848555365932	1575.6911916259344	0.0	587.5186072597801	1763.3714077616917	0.0	601.3723540979396	1774.118145079603	0.0	566.9501226243653	1793.208028681553	0.0	595.8349250969405	1802.6861457449584	0.0	613.1126288239636	1057.9789900758421	0.0	617.4099265033952	961.3881830257508	0.0	623.9459659858614	1020.7190978671126	0.0	706.7290081327619	1114.3166748387155	0.0	745.4594439193775	1250.2030404468903	0.0	769.9598235888046	1363.4199211031291	0.0	514.0027691666108	1111.112729550504	0.0	466.1976881194724	1246.2103976652588	0.0	444.40014757359563	1354.5389688656144	0.0
542	18.075042497295627	616.7720335753664	1363.7972567896807	0.0	670.6104358554077	1377.0853017449265	0.0	659.7030761195897	1488.9087361188926	0.0	646.4038766913329	1607.3439508871338	0.0	633.6760618364272	1612.9999566598121	0.0	665.4946784906532	1620.3119825011229	0.0	638.5794989126388	1643.6533237754327	0.0	568.8342878469749	1384.5089867062686	0.0	580.2120549335699	1571.3778323060922	0.0	589.305655756791	1761.5311339286875	0.0	604.8942555861101	1776.6521693130446	0.0	569.5827648601659	1793.5727260299632	0.0	597.3440178804192	1799.92561047873	0.0	613.3468707349708	1056.1401194436812	0.0	617.3950054559939	960.2109383938738	0.0	623.7958771227369	1017.8824204091369	0.0	705.8731559123949	1112.0223288065124	0.0	747.0191211496062	1245.963720455252	0.0	773.8580095783711	1359.6216548705768	0.0	515.6121832413049	1108.3725557277373	0.0	467.66383512650157	1242.6146071610704	0.0	447.17899023008454	1346.8689596021725	0.0
543	18.108391284191008	617.2833093698557	1357.3323178865407	0.0	671.6538050979373	1370.233783513134	0.0	657.8123874382657	1477.3709510784079	0.0	644.6079459187586	1582.6131200509421	0.0	626.9914406193917	1580.6363539304632	0.0	660.289959953393	1599.0905953263025	0.0	636.8820027857045	1616.759401275603	0.0	569.0834745563158	1376.7484852710131	0.0	581.053889731437	1565.7703663689072	0.0	590.1085914768611	1758.8617198062282	0.0	607.6081727160458	1778.2263894722607	0.0	571.9123453515887	1791.7965793365818	0.0	598.9051635604701	1797.9416507188282	0.0	614.6174278944687	1053.8558487415264	0.0	617.2156472426535	958.3420236138852	0.0	625.0364878498051	1015.3739386960317	0.0	705.3866044217978	1108.585199011331	0.0	748.8375023031892	1242.6421657872443	0.0	777.6178545647466	1355.9181439859788	0.0	517.8231833469481	1104.5427080082627	0.0	469.8703137218509	1238.975271739667	0.0	450.88816636923434	1340.2474140877675	0.0
544	18.141740071086385	617.5558882124518	1350.6810998213857	0.0	671.943591994859	1364.1733538305705	0.0	656.896456488593	1466.6911615040374	0.0	644.058437821788	1565.816071437494	0.0	621.3966011107996	1557.1197301425984	0.0	656.60904438433	1584.2793979784833	0.0	635.9825389291892	1596.3417564890926	0.0	569.8168119303698	1369.2134140496996	0.0	581.6864307044701	1557.120911859204	0.0	590.1291486797243	1752.6790924209768	0.0	608.0557916747435	1776.0712624746493	0.0	573.4786950871451	1787.2218347920925	0.0	599.7834729432544	1794.0064288420328	0.0	615.8415904399845	1050.231368275253	0.0	617.5669642419616	955.5241575327744	0.0	627.3298343370602	1012.8941181273437	0.0	705.0473765612074	1102.9875237158838	0.0	749.6846298015989	1237.8582411019581	0.0	780.2203862641263	1351.998305076016	0.0	520.5045415298283	1099.483241706135	0.0	472.8205492272832	1233.7502078052246	0.0	455.68742424232016	1333.4333452057137	0.0
